<?xml version="1.0" encoding="UTF-8"?>
<svg id="Layer_1" data-name="Layer 1" xmlns="http://www.w3.org/2000/svg" viewBox="0 0 960 960">
  <defs>
    <style>
      .cls-1 {
        fill: #00b0aa;
        stroke-width: 0px;
      }
    </style>
  </defs>
  <g id="g1956">
    <path id="path1936" class="cls-1" d="M873.53,463.14v.43c0,31.5-23.19,51.02-60.51,51.02-22.22,0-44.33-7.01-62.13-19.85-4.1-2.91-6.58-7.98-6.58-13.27,0-9.17,7.23-16.29,16.5-16.29,3.78,0,7.01,1.08,10.14,3.24,13.81,10.14,27.83,15.1,42.93,15.1s24.59-6.04,24.59-16.29v-.43c0-10.25-7.33-14.89-33.98-21.68-30.96-7.87-54.69-16.61-54.69-50.26v-.43c0-29.23,23.73-49.51,57.71-49.51,19.52,0,37.1,4.96,52.53,14.67,3.78,2.27,7.77,7.01,7.77,14.02,0,9.17-7.23,16.29-16.5,16.29-3.24,0-5.93-.76-8.95-2.59-12.84-7.55-24.38-11.22-35.27-11.22-13.38,0-22,5.93-22,15.1v.43c0,11.54,7.77,15.1,36.35,22.44,31.17,7.87,52.1,19.42,52.1,49.08M469.58,345.03c-44.33.11-77.77,36.78-77.77,85.1v66.34c0,9.82,7.98,17.69,17.69,17.69s17.69-7.98,17.69-17.69v-66.34c0-29.12,17.47-49.62,42.39-49.62,25.02.11,42.5,20.49,42.5,49.62v66.34c0,9.82,7.87,17.69,17.69,17.69s17.69-7.98,17.69-17.69v-66.34c0-48.43-33.44-85-77.88-85.1M379.19,345.78c-8.74-4.31-19.42-.76-23.73,7.98l-46.27,93.73-46.38-93.73c-4.31-8.74-14.99-12.3-23.73-7.98s-12.4,14.99-7.98,23.73l58.35,118-24.81,50.26c-4.31,8.74-.76,19.42,8.09,23.73,2.48,1.19,5.18,1.83,7.77,1.83,6.47,0,12.84-3.67,15.86-9.92l90.82-183.91c4.31-8.74.76-19.31-7.98-23.73M112.88,384.18c-9.71,0-17.69,7.87-17.69,17.69s7.87,17.69,17.69,17.69,17.69-7.87,17.69-17.69-7.98-17.69-17.69-17.69M139.52,304.15c-1.4,0-2.91-.11-4.31-.22-2.48-.11-5.29-.32-8.31-.32-46.6,0-75.29,29.02-77.66,77.98-.11.76-.11,1.62-.11,2.37v111.85c0,9.82,7.87,17.69,17.69,17.69s17.69-7.87,17.69-17.69v-107.43c0-44.22,24.27-49.29,42.39-49.29,1.94,0,3.99.11,6.26.22,1.83.11,3.56.22,5.39.32,9.82.32,17.91-7.44,18.23-17.15.22-9.92-7.44-18.01-17.26-18.34M191.84,304.58c-9.82,0-17.69,7.87-17.69,17.69v173.55c0,9.82,7.87,17.69,17.69,17.69s17.69-7.87,17.69-17.69v-173.55c0-9.71-7.98-17.69-17.69-17.69M645.94,345.03c-46.06.11-80.9,35.92-81.76,83.38v2.48c.86,47.68,35.7,83.38,81.76,83.38,7.01,0,13.27-.54,16.29-1.19,9.6-1.83,15.96-11.11,14.13-20.71s-11.11-15.86-20.6-14.02c-.76.11-4.42.54-9.82.54-27.18,0-46.27-20.17-46.49-49.19.22-28.91,19.31-49.08,46.38-49.19,27.4.11,46.49,20.49,46.49,49.62v66.34c0,9.82,7.87,17.69,17.69,17.69s17.69-7.87,17.69-17.69v-66.34c.22-48.43-34.95-85-81.76-85.1M894.13,379.22c8.84,0,15.86-7.12,15.86-15.75v-.11c0-8.63-6.9-15.64-15.75-15.64s-15.86,7.23-15.86,15.75v.11c.11,8.52,7.01,15.64,15.75,15.64M894.13,376.74c-7.55,0-13.16-5.93-13.16-13.27v-.11c0-7.33,5.72-13.27,13.27-13.27s13.16,5.93,13.16,13.27v.11c.11,7.33-5.61,13.27-13.27,13.27M887.77,369.84c0,.97.86,1.83,1.83,1.83s1.83-.86,1.83-1.83v-3.88h3.02l3.88,4.85c.43.65.76.86,1.51.86.86,0,1.73-.76,1.73-1.83,0-.54-.22-.86-.43-1.29l-2.7-3.34c2.05-.86,3.34-2.48,3.34-5.07v-.11c0-1.51-.54-2.7-1.4-3.67-1.19-1.19-2.91-1.83-5.18-1.83h-5.61c-.97,0-1.83.86-1.83,1.83v13.48ZM891.43,362.82v-4.96h3.67c1.83,0,3.02.86,3.02,2.48v.11c0,1.4-.97,2.37-2.91,2.37h-3.78Z"/>
    <path id="path1938" class="cls-1" d="M693.72,587.39c0-3.13-2.48-5.61-5.61-5.61s-5.61,2.48-5.61,5.61v50.48h-21.57c-5.29,0-21.36,0-21.36-24.48v-25.99c0-3.13-2.48-5.61-5.61-5.61s-5.61,2.48-5.61,5.61v25.99c0,22.76,11.86,35.7,32.57,35.7h27.29c3.02,0,5.5-2.48,5.5-5.61v-56.09Z"/>
    <path id="path1940" class="cls-1" d="M714.32,625.47v-63.96c0-3.13-2.48-5.61-5.61-5.61s-5.61,2.48-5.61,5.61v63.96c0,3.13,2.48,5.72,5.61,5.72,3.13-.11,5.61-2.59,5.61-5.72"/>
    <path id="path1942" class="cls-1" d="M663.09,566.47c1.51,0,2.91-.54,3.99-1.62s1.62-2.48,1.62-3.99-.54-2.91-1.62-3.99-2.48-1.62-3.99-1.62-2.91.54-3.99,1.62-1.62,2.48-1.62,3.99.65,2.91,1.62,3.99,2.48,1.62,3.99,1.62"/>
    <path id="path1944" class="cls-1" d="M597.29,581.79c-3.13,0-5.61,2.48-5.61,5.61v32.25h-20.17c-5.29,0-21.46,0-21.46-24.48v-33.87c0-3.13-2.48-5.61-5.61-5.61s-5.61,2.48-5.61,5.61v33.87c0,22.76,11.86,35.7,32.68,35.7h25.67c3.13,0,5.61-2.48,5.61-5.61v-37.97c.11-3.02-2.37-5.5-5.5-5.5"/>
    <path id="path1946" class="cls-1" d="M596.97,566.47c1.51,0,2.91-.54,3.99-1.62,1.08-1.08,1.62-2.48,1.62-3.99s-.65-2.91-1.62-3.99c-1.08-1.08-2.48-1.62-3.99-1.62s-2.91.54-3.99,1.62-1.62,2.48-1.62,3.99.65,2.91,1.62,3.99c1.08,1.08,2.48,1.62,3.99,1.62"/>
    <path id="path1948" class="cls-1" d="M521.68,581.79c-3.13,0-5.61,2.48-5.61,5.61v18.98c0,.54-.11,13.37-10.14,13.37h-17.04l.65-1.51c1.62-3.67,2.48-7.98,2.48-11.86v-18.98c0-3.13-2.48-5.61-5.61-5.61s-5.61,2.48-5.61,5.61v18.98c0,.54-.11,13.37-10.14,13.37h-13.7v-32.47c0-3.13-2.48-5.61-5.61-5.61s-5.61,2.48-5.61,5.61v50.48h-21.14c-5.29,0-21.46,0-21.46-24.48v-25.99c0-3.13-2.48-5.61-5.61-5.61s-5.61,2.48-5.61,5.61v25.99c0,22.76,11.86,35.7,32.68,35.7h26.64c3.13,0,5.61-2.48,5.61-5.61v-12.4h50.48c14.56-.97,19.85-15.21,19.85-24.59v-18.98c.11-3.13-2.48-5.61-5.5-5.61"/>
    <path id="path1950" class="cls-1" d="M765.45,640.46c-1.51,0-2.91.65-3.99,1.62-1.08,1.08-1.73,2.48-1.73,3.99,0,1.4.65,2.91,1.73,3.99s2.48,1.62,3.99,1.62c1.4,0,2.91-.65,3.99-1.62,1.08-1.08,1.62-2.48,1.62-3.99s-.54-2.91-1.62-3.99c-1.08-.97-2.48-1.62-3.99-1.62"/>
    <path id="path1952" class="cls-1" d="M749.06,640.46c-1.4,0-2.91.65-3.99,1.62-1.08,1.08-1.62,2.48-1.62,3.99,0,1.4.65,2.91,1.62,3.99,1.08.97,2.48,1.62,3.99,1.62,1.4,0,2.91-.65,3.99-1.62,1.08-1.08,1.62-2.48,1.62-3.99s-.54-2.91-1.62-3.99c-1.08-.97-2.48-1.62-3.99-1.62"/>
    <path id="path1954" class="cls-1" d="M838.47,572.19c-12.84-.43-24.7,3.45-33.11,10.89l-.43.43c-.76.65-1.62,1.4-2.37,2.16l-1.83,1.73v-25.78c0-3.13-2.48-5.61-5.61-5.61s-5.61,2.48-5.61,5.61v46.06c0,1.51.65,2.91,1.73,3.99s2.48,1.62,3.99,1.62,2.91-.65,3.99-1.62c.54-.65,1.08-1.4,1.29-2.37l.32-1.19c.65-2.05,1.08-2.91,1.83-4.31,1.08-2.05,2.59-4.21,4.64-6.69,1.29-1.73,3.24-3.34,5.07-4.96l.43-.43c6.26-5.5,15.32-8.41,25.24-8.09,16.4.65,19.63,7.23,19.63,17.8v18.55h-92.87l.65-1.51c1.62-3.78,2.48-7.98,2.48-11.86v-19.42c0-3.13-2.48-5.61-5.61-5.61s-5.61,2.48-5.61,5.61v19.2c0,.54-.11,13.37-10.14,13.37h-11.43v-32.57c0-3.13-2.48-5.61-5.61-5.61s-5.61,2.48-5.61,5.61v38.83c0,10.46-8.74,17.37-12.73,18.88-2.91,1.08-4.31,4.31-3.24,7.23,1.08,2.8,4.42,4.31,7.23,3.24,7.55-2.8,16.83-11.43,19.31-23.41l.22-.86h128.68c3.13,0,5.61-2.59,5.61-5.72v-24.16c.11-18.55-10.14-28.26-30.53-29.02"/>
  </g>
</svg>