<?xml version="1.0" encoding="utf-8"?>
<!-- Generator: Adobe Illustrator 27.8.0, SVG Export Plug-In . SVG Version: 6.00 Build 0)  -->
<svg version="1.0" id="katman_1" xmlns="http://www.w3.org/2000/svg" xmlns:xlink="http://www.w3.org/1999/xlink" x="0px" y="0px"
	 viewBox="0 0 778 512" style="enable-background:new 0 0 778 512;" xml:space="preserve">
<style type="text/css">
	.st0{fill:#0A6937;}
</style>
<path class="st0" d="M230.71,179.89c7.94,10.03,11.2,21.47,9.78,34.32c-0.13,1.23-0.38,1.25-0.73,0.07
	c-3.43-11.47-9.66-21.12-18.69-28.93c-0.14-0.12-0.36-0.1-0.48,0.04c-0.07,0.08-0.09,0.18-0.07,0.29
	c2.59,11.55,2.54,23.11-0.16,34.66c-0.03,0.14-0.16,0.23-0.31,0.2c-0.1-0.02-0.18-0.1-0.2-0.2c-2.7-11.77-6.51-26.39-13.69-36.09
	c-0.15-0.2-0.44-0.25-0.64-0.1c-0.04,0.03-0.07,0.06-0.1,0.1c-7.13,9.81-10.92,24.36-13.57,35.97c-0.04,0.15-0.2,0.24-0.34,0.2
	c-0.1-0.03-0.17-0.1-0.2-0.2c-2.72-11.53-2.77-23.07-0.14-34.61c0.05-0.19-0.06-0.38-0.26-0.42c-0.12-0.03-0.24,0-0.33,0.08
	c-9.07,7.91-15.32,17.67-18.75,29.26c-0.04,0.18-0.22,0.29-0.4,0.24c-0.14-0.03-0.24-0.15-0.25-0.29
	c-1.46-12.95,1.83-24.5,9.87-34.63c1.06-1.34,0.84-1.59-0.65-0.75c-10.65,6.01-19.8,13.8-27.47,23.35c-0.08,0.1-0.24,0.12-0.34,0.03
	c-0.07-0.06-0.1-0.14-0.08-0.23c3.64-18.99,14.82-30.76,33.54-35.32c0.1-0.01,0.17-0.1,0.16-0.2c-0.01-0.1-0.1-0.17-0.19-0.16
	c-12.63-0.94-24.13,2.15-34.51,9.27c-0.06,0.06-0.14,0.06-0.2,0c-0.06-0.06-0.06-0.14,0-0.2c10.05-14.37,23.98-20.66,41.78-18.85
	c0.21,0.02,0.4-0.14,0.42-0.35c0.01-0.1-0.02-0.19-0.07-0.27c-1.44-1.95-3.26-3.43-5.45-4.44c-0.19-0.08-0.27-0.3-0.18-0.49
	c0.05-0.11,0.15-0.19,0.26-0.21c5.03-1.03,9.46,0.08,13.27,3.32c0.19,0.16,0.47,0.14,0.63-0.05c0.06-0.07,0.09-0.15,0.11-0.23
	c0.5-3.3,1.62-6.39,3.36-9.28c0.13-0.2,0.39-0.26,0.59-0.14c0.06,0.03,0.1,0.08,0.14,0.14c1.77,2.86,2.93,5.95,3.48,9.27
	c0.04,0.22,0.25,0.37,0.47,0.33c0.07-0.01,0.13-0.04,0.18-0.08c3.82-3.12,8.22-4.24,13.2-3.35c0.19,0.03,0.32,0.21,0.29,0.4
	c-0.02,0.11-0.09,0.21-0.19,0.26c-2.17,1.12-3.97,2.67-5.38,4.65c-0.12,0.16-0.08,0.39,0.09,0.5c0.07,0.05,0.16,0.07,0.25,0.07
	c17.83-1.87,31.78,4.38,41.83,18.76c0.06,0.08,0.03,0.19-0.05,0.25c-0.06,0.04-0.14,0.04-0.2,0c-10.33-7.08-21.8-10.24-34.41-9.47
	c-0.16,0.01-0.28,0.15-0.27,0.31c0.01,0.12,0.1,0.23,0.22,0.26c18.53,4.53,29.66,16.13,33.41,34.82c0.11,0.53-0.03,0.6-0.4,0.21
	c-8.52-8.82-16.47-17.08-27.41-22.78C230.01,178.55,229.82,178.78,230.71,179.89z"/>
<path class="st0" d="M396.95,201.57l9.56-0.08c0.52,0,0.95,0.42,0.96,0.94l0.09,9.8c0,0.52-0.42,0.95-0.94,0.96l-9.56,0.08
	c-0.52,0-0.95-0.42-0.96-0.94l-0.09-9.8C396,202.01,396.42,201.58,396.95,201.57z"/>
<path class="st0" d="M419.56,201.59l10.28-0.09c0.34,0,0.61,0.27,0.62,0.6l0.09,10.44c0,0.34-0.27,0.61-0.6,0.62l-10.28,0.09
	c-0.34,0-0.61-0.27-0.62-0.6l-0.09-10.44C418.95,201.86,419.22,201.59,419.56,201.59z"/>
<path class="st0" d="M559.06,236h-21.9c-0.24,0-0.44,0.2-0.44,0.44c0,0,0,0,0,0v22.12c0,0.24,0.2,0.44,0.44,0.44l0,0h21.23
	c0.24,0,0.44,0.2,0.44,0.44c0,0.12-0.05,0.23-0.13,0.31L548,270.37c-0.08,0.08-0.19,0.13-0.31,0.13h-22.14
	c-0.24,0-0.44-0.2-0.44-0.44c0,0,0,0,0,0l0.2-34.06c0-0.12,0.05-0.23,0.13-0.31l10.97-10.97c0.08-0.08,0.19-0.13,0.31-0.13
	l33.84-0.06c0.24,0,0.44,0.2,0.44,0.44c0,0,0,0,0,0v33.59c0,0.24,0.2,0.44,0.44,0.44l0,0h6.15c0.24,0,0.44-0.2,0.44-0.44
	c0,0,0,0,0,0l0.04-22.33c0-0.12,0.05-0.23,0.13-0.31l11.24-11.23c0.08-0.08,0.19-0.13,0.31-0.13l34.06-0.09
	c0.24,0,0.44,0.2,0.44,0.44c0,0,0,0,0,0v10.65c0,0.24-0.2,0.44-0.44,0.44l0,0h-33.65c-0.24,0-0.44,0.2-0.44,0.44c0,0,0,0,0,0
	l0.01,22.12c0,0.24,0.2,0.44,0.44,0.44l0,0h40.64c0.24,0,0.44-0.2,0.44-0.44c0,0,0,0,0,0v-33.6c0-0.24,0.2-0.44,0.44-0.44l0,0h10.62
	c0.24,0,0.44,0.2,0.44,0.44c0,0,0,0,0,0v33.6c0,0.24,0.2,0.44,0.44,0.44l0,0h10.62c0.24,0,0.44-0.2,0.44-0.44c0,0,0,0,0,0v-33.62
	c0-0.24,0.2-0.44,0.44-0.44l0,0h10.63c0.24,0,0.44,0.2,0.44,0.44c0,0,0,0,0,0l-0.03,33.62c0,0.24,0.2,0.44,0.44,0.44l0,0h10.59
	c0.24,0,0.44-0.2,0.44-0.44c0,0,0,0,0,0l-0.18-33.48c0-0.24,0.19-0.43,0.43-0.44l10.86-0.18c0.24-0.01,0.44,0.19,0.45,0.43
	c0,0,0,0.01,0,0.01l-0.04,33.66c0,0.24,0.2,0.44,0.44,0.44l0,0h6.15c0.24,0,0.44-0.2,0.44-0.44c0,0,0,0,0,0v-56.55
	c0-0.24,0.2-0.44,0.44-0.44l0,0l10.62-0.09c0.24,0,0.44,0.2,0.44,0.44l0,0v56.78c0,0.12-0.05,0.23-0.13,0.31l-11.37,11.36
	c-0.08,0.08-0.19,0.13-0.31,0.13l-123.99-0.01c-0.24,0-0.44,0.2-0.44,0.44c0,0,0,0,0,0L571,281.75c0,0.12-0.05,0.23-0.13,0.31
	l-11.15,11.08c-0.08,0.08-0.19,0.13-0.31,0.13l-33.97,0.08c-0.24,0-0.44-0.2-0.44-0.44c0,0,0-0.01,0-0.01l0.15-10.73
	c0.01-0.24,0.2-0.43,0.44-0.43l33.47,0.08c0.24,0,0.44-0.2,0.44-0.44l0,0v-44.94C559.5,236.2,559.3,236,559.06,236L559.06,236z"/>
<path class="st0" d="M726,201.95v68.15l-10.56,0.31c-0.77,0.02-1.16-0.35-1.16-1.12l-0.04-66.82c0-0.49,0.39-0.88,0.87-0.88
	c0.01,0,0.02,0,0.03,0L726,201.95z"/>
<path class="st0" d="M101.9,254.02c33.44-0.25,62.99,15.04,91.29,31.1c0.27,0.15,0.28,0.31,0.01,0.47l-42.78,24.99
	c-0.29,0.17-0.32,0.39-0.09,0.65l7.35,7.97c0.25,0.27,0.52,0.3,0.83,0.11l39.39-24.6c0.28-0.17,0.65-0.09,0.82,0.19
	c0.05,0.09,0.08,0.19,0.09,0.29l2.63,71.53c0.03,0.65-0.18,0.74-0.62,0.25l-42.29-46.73c-0.27-0.29-0.57-0.34-0.91-0.15
	c-4.01,2.22-8.26,4.98-12.12,6.46c-9.81,3.76-19.96,4.5-30.45,2.23c-3.38-0.73-6.75-1.42-10.1-2.06c-0.14-0.01-0.25-0.13-0.24-0.27
	s0.13-0.25,0.27-0.24c16.22-0.82,30.95-5.88,44.19-15.18c0.3-0.21,0.38-0.63,0.17-0.93c-0.02-0.03-0.04-0.05-0.06-0.07L53.06,203.69
	c-0.37-0.41-0.31-1.05,0.12-1.43c0.13-0.11,0.28-0.19,0.45-0.23c0.3-0.08,0.75-0.06,1.35,0.06c47.02,9.39,94.02,18.77,141.01,28.14
	c0.22,0.05,0.37,0.23,0.38,0.45l1.71,45.33c0.02,0.48-0.19,0.62-0.63,0.41c-31-14.83-60.24-28.37-95.62-23.4
	C96.86,253.72,96.88,254.05,101.9,254.02z"/>
<path class="st0" d="M310.61,253.39c-33.75-6.43-66.67,8.41-96.38,23.05c-0.23,0.11-0.5,0.01-0.61-0.21
	c-0.03-0.07-0.05-0.14-0.05-0.22l1.77-45.29c0.01-0.28,0.16-0.45,0.43-0.51l141.88-28.4c0.59-0.12,1.16,0.27,1.28,0.86
	c0.07,0.34-0.03,0.69-0.26,0.94l-96.52,106.67c-0.29,0.32-0.77,0.39-1.14,0.17l-42.49-24.83c-0.19-0.11-0.19-0.23,0-0.34
	c14.91-8.99,30.38-16.6,46.39-22.83c15.2-5.91,29.7-8.47,45.65-8.48C312.63,253.97,312.64,253.78,310.61,253.39z"/>
<path class="st0" d="M417.98,259.89l-10.4,10.43c-0.11,0.12-0.27,0.18-0.43,0.18h-21.99c-0.33,0-0.6-0.27-0.6-0.6c0,0,0,0,0,0
	l0.11-33.7c0-0.16,0.07-0.31,0.18-0.42l11.05-11.05c0.11-0.12,0.27-0.18,0.43-0.18l33.57-0.07c0.33,0,0.6,0.27,0.6,0.6c0,0,0,0,0,0
	v33.32c0,0.33,0.27,0.6,0.6,0.6l0,0h21.58c0.33,0,0.6-0.27,0.6-0.6c0,0,0,0,0,0l-0.03-33.17c0-0.33,0.26-0.59,0.59-0.6l10.56-0.18
	c0.33-0.01,0.6,0.26,0.61,0.59c0,0,0,0.01,0,0.01l-0.04,33.64c0,0.16-0.06,0.32-0.18,0.43l-11.24,11.2
	c-0.11,0.12-0.27,0.18-0.43,0.18H419.6c-0.33,0-0.6-0.27-0.6-0.6c0,0,0,0,0,0v-9.59c0-0.33-0.28-0.6-0.61-0.59
	C418.24,259.72,418.09,259.78,417.98,259.89z M418.96,236.22c0-0.14-0.12-0.26-0.26-0.26l-22.4,0.08c-0.14,0-0.26,0.12-0.26,0.26
	l0.08,22.5c0,0.14,0.12,0.26,0.26,0.26l22.4-0.08c0.14,0,0.26-0.12,0.26-0.26c0,0,0,0,0,0L418.96,236.22z"/>
<path class="st0" d="M505.95,236h-21.9c-0.3,0-0.55-0.25-0.55-0.55v-10.4c0-0.3,0.25-0.55,0.55-0.55h33.4c0.3,0,0.55,0.25,0.55,0.55
	v33.59c0,0.15-0.06,0.29-0.16,0.39l-11.27,11.31c-0.1,0.1-0.24,0.16-0.39,0.16h-33.45c-0.3,0-0.54-0.24-0.55-0.54l-0.25-10.4
	c-0.01-0.3,0.24-0.55,0.54-0.56c0,0,0.01,0,0.01,0h33.47c0.3,0,0.55-0.25,0.55-0.55v-21.9C506.5,236.25,506.25,236,505.95,236z"/>
<path class="st0" d="M431.14,281.79h10.22c0.35,0,0.64,0.29,0.64,0.64v10.36c0,0.35-0.29,0.64-0.64,0.64h-10.22
	c-0.35,0-0.64-0.29-0.64-0.64v-10.36C430.5,282.08,430.79,281.79,431.14,281.79z"/>
<path class="st0" d="M454.14,281.77h9.92c0.49,0,0.88,0.39,0.88,0.88v9.86c0,0.49-0.39,0.88-0.88,0.88h-9.92
	c-0.49,0-0.88-0.39-0.88-0.88v-9.86C453.26,282.16,453.65,281.77,454.14,281.77z"/>
<path class="st0" d="M213.4,294.48l39.97,24.95c0.14,0.09,0.18,0.28,0.09,0.43c-0.01,0.01-0.02,0.03-0.03,0.04l-42.69,47.21
	c-0.11,0.13-0.31,0.14-0.44,0.02c-0.07-0.06-0.11-0.15-0.1-0.24l2.73-72.16c0.01-0.17,0.15-0.3,0.32-0.29
	C213.31,294.44,213.36,294.45,213.4,294.48z"/>
<path class="st0" d="M589.76,368h-11.6l-0.12-33.89c0-0.25-0.21-0.46-0.46-0.46l-21.83,0.1c-0.33,0-0.5,0.17-0.5,0.5V356
	c0,0.33,0.17,0.5,0.5,0.5h20.78c1.06,0,1.22,0.38,0.47,1.13L566.65,368H543.8l-0.01-33.86c0-0.35,0.14-0.69,0.39-0.94l10.73-10.74
	c0.22-0.22,0.49-0.33,0.8-0.32l21.8,0.16c0.42,0,0.63-0.21,0.63-0.63l-0.08-21.72c0-0.54,0.44-0.98,0.98-0.98c0,0,0.01,0,0.01,0
	l9.86,0.13c0.49,0.01,0.88,0.4,0.88,0.88L589.76,368z"/>
<path class="st0" d="M597.37,299.15l10.3-0.11c0.28,0,0.51,0.22,0.52,0.5l0.11,10.54c0,0.28-0.22,0.51-0.5,0.52l-10.3,0.11
	c-0.28,0-0.51-0.22-0.52-0.5l-0.11-10.54C596.86,299.39,597.09,299.16,597.37,299.15z"/>
<path class="st0" d="M418.93,368h-34.26l-0.03-10.9c0-0.4,0.2-0.6,0.6-0.6h33.26c0.28,0,0.5-0.22,0.5-0.5v-10.5
	c0-0.33-0.17-0.5-0.5-0.5h-33.32c-0.35,0-0.63-0.28-0.63-0.62c0,0,0-0.01,0-0.01l0.13-21.91c0-0.33,0.13-0.65,0.36-0.88l10.69-10.68
	c0.25-0.25,0.54-0.37,0.89-0.37l33.22-0.04c0.36,0,0.66,0.3,0.66,0.66v10.36c0,0.41-0.34,0.75-0.76,0.75l0,0l-32.98-0.04
	c-0.51,0-0.76,0.26-0.76,0.77v10.25c0,0.17,0.13,0.31,0.3,0.31l33.41-0.07c0.44,0,0.79,0.35,0.79,0.79v0v21.72
	c0,0.3-0.11,0.56-0.32,0.77L418.93,368z"/>
<path class="st0" d="M305.57,326.14c0.41,0.03,0.64,0.05,0.7,0.08c0.55,0.23,0.54,0.4-0.05,0.52c-4.27,0.85-8.91,2.31-12.67,2.83
	c-14.37,1.97-27.52-1.26-39.44-9.69c-0.26-0.19-0.28-0.4-0.07-0.64l7.23-7.96c0.36-0.4,0.96-0.47,1.39-0.16
	C275.44,320.13,289.74,325.13,305.57,326.14z"/>
<path class="st0" d="M483.49,368h-11.35l-0.09-33.92c0-0.26-0.21-0.47-0.47-0.47l0,0l-21.46,0.18c-0.6,0.01-1.08,0.49-1.09,1.09
	l-0.04,20.9c0,0.4,0.32,0.72,0.72,0.72l0,0h20.54c1.12,0,1.29,0.4,0.5,1.19L460.41,368h-22.78l0.05-34c0-0.37,0.13-0.68,0.39-0.94
	l10.58-10.59c0.15-0.15,0.35-0.23,0.56-0.23l33.86-0.07c0.23,0,0.42,0.19,0.42,0.42V368z"/>
<path class="st0" d="M524.94,368h-34.15l-0.01-45.35c0-0.31,0.25-0.56,0.56-0.57l10.03-0.1c0.36-0.01,0.65,0.28,0.66,0.64
	c0,0,0,0.01,0,0.01l-0.04,33.08c0,0.44,0.35,0.79,0.78,0.79h21.56c0.46,0,0.83-0.37,0.83-0.83l0,0L525,322.75
	c-0.01-0.35,0.27-0.63,0.62-0.64c0,0,0,0,0,0l10.33-0.13c0.44-0.01,0.79,0.34,0.8,0.78c0,0,0,0.01,0,0.01v32.96
	c0,0.35-0.14,0.69-0.39,0.94L524.94,368z"/>
<path class="st0" d="M608.21,368h-11.25l-0.05-45.59c0-0.2,0.16-0.36,0.36-0.36h0l10.4,0.08c0.38,0,0.57,0.19,0.57,0.56L608.21,368z
	"/>
<path class="st0" d="M661.28,368h-11.41l0.04-10.3c0.01-0.21-0.06-0.41-0.19-0.56c-0.26-0.33-0.29-0.65-0.09-0.96
	c0.16-0.26,0.24-0.54,0.23-0.84l-0.12-21.31c-0.01-0.18-0.15-0.32-0.33-0.32l-21.87,0.03c-0.29,0-0.53,0.24-0.54,0.53l-0.18,21.76
	c0,0.26,0.21,0.47,0.47,0.47h21.22c0.34,0,0.61,0.27,0.62,0.6c0,0.17-0.07,0.33-0.19,0.45L638.42,368h-22.88l-0.02-34.1
	c0-0.33,0.12-0.62,0.36-0.85l10.45-10.37c0.28-0.28,0.65-0.43,1.03-0.43l33.63-0.07c0.14,0,0.25,0.11,0.25,0.25L661.28,368z"/>
</svg>
